<?xml version="1.0" standalone="no"?><!DOCTYPE svg PUBLIC "-//W3C//DTD SVG 1.1//EN" "http://www.w3.org/Graphics/SVG/1.1/DTD/svg11.dtd"><svg t="1560471218970" class="icon" style="" viewBox="0 0 1024 1024" version="1.1" xmlns="http://www.w3.org/2000/svg" p-id="1839" xmlns:xlink="http://www.w3.org/1999/xlink" width="450" height="450"><defs><style type="text/css"></style></defs><path d="M520.60672 5.57568L78.9504 259.05152l-1.29536 509.23008L518.00064 1024l441.64096-253.48608 1.29536-509.2096-440.33024-255.72864z m159.25248 777.1648l-194.87744-262.4256h-25.23136v262.4256H317.75744V203.36128h217.67168c37.43232 0 70.25152 3.9424 98.4576 11.80672 28.2112 7.86432 51.67104 18.85184 70.38464 32.95744s32.75776 30.78144 42.11712 50.03776c9.35936 19.26144 14.03392 40.28416 14.03392 63.06304 0 16.2816-3.18976 31.80544-9.55904 46.592-6.3744 14.78656-15.40096 28.34432-27.0592 40.6784-11.66336 12.34944-25.63584 23.33696-41.9072 32.95744-16.27648 9.6256-34.31424 17.56672-54.11328 23.808l206.27456 277.4784h-154.19904z" fill="#000000" p-id="1840"></path><path d="M585.46688 289.00864a88.03328 88.03328 0 0 0-29.90592-21.77024c-11.52-5.1456-24.20224-7.7312-38.03136-7.7312H459.7504v210.74944h30.9248c17.36192 0 33.42848-2.43712 48.20992-7.31648 14.78656-4.88448 27.5968-11.86816 38.44608-20.95104 10.8544-9.08288 19.39456-20.20864 25.64096-33.36192 6.23104-13.15328 9.35424-28.01152 9.35424-44.54912 0-15.19616-2.37568-29.16352-7.12192-41.9072-4.74624-12.75392-11.32544-23.80288-19.7376-33.16224z" fill="#000000" p-id="1841"></path></svg>